<?xml version="1.0" encoding="utf-8"?>
<!-- Generator: Adobe Illustrator 22.1.0, SVG Export Plug-In . SVG Version: 6.00 Build 0)  -->
<svg version="1.1" xmlns="http://www.w3.org/2000/svg" xmlns:xlink="http://www.w3.org/1999/xlink" x="0px" y="0px"
	 viewBox="0 0 2682.3 1143.4" style="enable-background:new 0 0 2682.3 1143.4;" xml:space="preserve">
<style type="text/css">
	.st0{fill:#7B69A0;}
	.st1{fill:#D3D3D3;}
</style>
<g id="Layer_2">
</g>
<g id="svg2" xmlns:svg="http://www.w3.org/2000/svg">
	<g>
		<path class="st0" d="M2624.3,102h-30.7l-1.5-8.2l-4.9-1.4l-15.4-3.4l-4,0l-5.9,3.5l-12.8,6l-0.5,1.8l-2.7,1.6l-7.3-0.7l-2.4-3.9
			l0.6-2.1l-3.5-0.1l-3.6,0.2l-8,8l-12.7,16.7l-7.5,9.1l-2.1,8.8l-0.3,2.6l-3.7,5.1l-2.8,1.9l-3.1,10.9l4.1,4.1l-6.2,7.6l-9.6,9
			l-5.1,10.1l-1.3,4.7l-4-0.5l-4,0.5l-2.6,1l-2.5,0.1l-2.6,3.1l-1.5-0.8l-2.2-1.6l-5.1,3.8l-2.8,9.2l-2.7,0.7l-76.5,16.8l-1.9,0.8
			l-22.1,5.1l-13.4,3.4l-8.9,0.3l-16,3.3l-9.2,2.8l-7.7,3.7l-7.1,4.8l-9.6,7.2l-10.5,8.7l-5.6,5.5l-2.2,1.6l-19.1,11l-0.9,4.7
			l1.7,1.9l4.5,1.2l4.9-0.3l-0.8,2.6l-4.2,4l0.1,2.6l3,3.6l-1.6,4.1l-6,2.4l-5.8,0.4l-5.5,3.8l-6.6,6.2l-6.8,3.6l-14.6,1.8l-7.8,2.5
			l-6.5,2.7l-4.4,0l-4.7-2l-17.6,1.4l-9.2,1.4l-11.9,3l-12.9,3.4l-9,3.7l2.2,10.9l4.9,0l2,5.4l-0.1,1.7l-3.7,2l-7.3,5.4l-2.2,3
			l-6.3,3.6l-5.5,2.4l-3.5,3.1l-4.2,2.3l-4.6,2.3l-3.1,1.1l-18.2,11.2l-3.9,1.1l-13.3,6.2l-2.8,0l-19.1,8.4l-12,4.8l-11.4,7.3
			l-13.3,7.8l-9.4,2l-8.3,1.4l-16.6,5.6l-5.9,0.7l-7.8-5l-14.7,2.1l-6.4-2.2l-5.9-2.1l-3-0.4l0.7-1.1l1.2-2.7l7.8-7.1l6.5-3.5l2-9.2
			l4.7-2.8l-7.5,1l-6.4-2.2l-5.9-2.1l-3-0.4l0.7-1.1l1.2-2.7l7.8-7.1l6.5-3.5l2-9.2l5.3-3.2l3.2-0.8l2.5-6.5l5.9-5.8l2.6,0.9
			l0.1,1.1l2.2,0.2l5.9-2.1l-0.6-1.8l-0.9-9.4l1.2-1l-18.6-72.2l-11.4,6.8l-14.2-49.8h-13.8l-9.7-34.1h-6.4l-4.3-15.1l-31.2,9.8
			l-4.9-17.1l-37.8,22.4h-64.7l-10.1-35.3h-17.3l-30,35.3h-1.1l0.3,1l-3.7,4.3h13.5l4.8,16.9l-1,2l-13.2,4.6l-7.8,3.9l-16,2.6h33.2
			l4.8,16.9l-1,2l-13.2,4.6l-7.8,3.9l-17.1,2.8l-2.1,1.3l-0.5,1.8l-11.1,4.7l-8.1,1.9l-2.3,1.2l-2.8,0.9h-9.7l-4.2-0.6l-3.2,0.5
			l-5.5,2.1l-2.4-1l2.8-3.6l7-5.9l3.7-2.3l-4.6-2.3l-6.3,1.8l-9.1,4l-22.4,7.2l-8.4,1.7l-7.8-0.4l-2.3-1.4l-0.9-0.9l12.2-6l3.7-0.5
			l15.2-9.9l5.4-1.8l8.3-7.5l4.8-3.9l1.5-1.9l7-5.9l3.7-2.3l-4.6-2.3l-6.3,1.8l-9.1,4l-22.4,7.2l-8.4,1.7l-7.8-0.4l-2.3-1.4
			l-0.9-0.9l12.2-6l3.7-0.5l15.2-9.9l5.4-1.8l8.3-7.5l8.6-6.9l2.3-1.2l47.3-15.9l-7.6,8.9h21.8l-15.9-55.7l-142.7,56.1l4.3,3.2
			l-1.6,0.9l-1.6,2.4l-13.5,0.8l1.1-3.8l-17.4,0.5l-0.1-2.6l-13.5,0.8l-3.7-2.7l-0.8-10.9l0.6-9.9l-5-1.1l-6-0.5l-1.9,0.4l-5.2,15.1
			l-83.8,5.1l-3,0.1l-78.8,3.8l-51.4,2l-73.1,2.2l-68.4,0.8l-3.3-0.7l-83.9,0.1l-79.5-1.5l-79.3-2.4l-87.2-4.2l-49.5-3l-87.4-7
			l-3-0.1l-34.8-2.4l-1.8-0.6l-40.4-3.6l-60.9-6.4l-52.8-6.9l-22.8-2.1l-25.6-3.3l-11.4-1.9l-3.6,1.7l-1.3,1.5l4.2,8.4l1.8,4.5
			l-6.8,6.8l-1.2,4.1l1,2.5l-3.2,3.4l-0.3,5.8l2,2.2l-1.1,2.4l-4.1,0.5l-0.8-3.4l-1.9-4.2l-4.2-2.3l2-3.9l6.5-1.3l0-3.2l-0.3-2
			l-6.5,2.7l-4.2,2.3l-1.3,4.4l-6.4,0.7l-8.9-1.2l-7.3-2.2l-8.2-0.7l-11.5-3.1l-8-3l-6.3-4.2l-5.2-4.9l-5.6-0.5l-11.2,17.5l3.3,5.6
			l-1.8,6.4l0.9,0.7l-1.2,0.2l-2.1,7.2l-3.3,5.4l0.3,12.7l6.2,4.5l-12.5,1.9l-2.4,6.8l6.6,1.6l-6.6,7.6l-7.8,1.1l-2.4,5.4l4.8,4.9
			l-7.2,5.1l-9.7,12.2l-14.2,18.8l-12.4,12.3l-21.3,26.5l-25.1,25.8l-29.1,24.3l-6.9,5.6l-6.7,15.7l-6.7,11.1l5.7,6l-1.8,1.8
			l-6.9,8.9l-4.3,13.6l-20.5,22.4l-9.9,5.2l-1.5,2.1l-5.4,1.8l-1.7,2.1l0.5,2.7l-4.3,11.8l-1.6,1.5l2.3,3l2.3,7.4l1.3,6.3l-4.3,11.8
			l-6.5,5.9l-1.1,2.5l3.6,8.1l1.5,7.1l-2.6,5.9l-1.2,0.9l-1.1,3.8l12.5,10.5l-2.6,4.5l-3,4.2l-2.8,3.6l-2.2,8.7l10.6,9l-2.6,4.5
			l-2.2,3.1l0.5,0.5l7.4,0.4l1.3,4.8l-5,6.7l-6.7,3.3L49,638l-1.4,2.4l-0.4,1.4l3.9,6.4l4,4.4l7.4,0.4l1.3,4.8l-5,6.7l-6.7,3.3
			L49,668l-4.3,7.2l-0.2,5.2l6.7,7.4l0.6,3.3h-8.1l11.6,40.5h4l0,0l11.4,0.2l11.7,2.5l9.7,3.2l8.1-0.5l6.5,5.1l4.7,8.4l2,3.9
			l9.7,3.2l5.9,0.3l2.6,9.1h7.6l0,0.6l-4.4,1.4l0.4,1.7l8.6,0.9l7.1-0.2l14.1,49.3h1.1l0.4,3l27.1,0.9l53.4,1.6l30.5-0.5v8.1
			l0.8,1.7l47.1,16.2l29.8,11.8l36.5,13.1l41.5,15.4l32.9,2.3l68.5,0.6l4,1.2l42,1l8.8-18.5l45,1.9l33.8,0.8l2.7-0.2l5.1,0.6
			l5.7,4.9l1.8,7.7l11.9,3.3l1.9,5.7l15.7,13.2l2.8,2.7l8.1,1.9l11.5,40.5h2.2l2.2,4.7l16.6,12.9l13.3,2.9l3.9,3.2l-0.3,1.2l9.6,3.5
			l5.1,0.8l4.4,1.8l6.7,1.3l8-4.8l15.3-11.9l4.6-6.9l8-6.3l10.7-3.3l13.5-4l7.4,3.6l20.4-0.1l18.3,0.9l6.1,3.4l-0.6,2.1l5.6,5.1
			l12.7,7.9l0.9,3.2l0,0.2l0.1,0.1l10.3,36.2h2l8.9,3.4l6.4,11.5l5.6,5.8l7.3,25.4l-0.2,0.1l0.6,4l0.8,0.3l5.7,20h5l0.5,0.9
			l19.4,4.9l13.8,1.2l10.1,4.9l8.7,0.6l3.9-1.1l14.7,1.1l13.7,6.1l8.8-3.7l-0.1-1.2l-1-4.3l1.9-3.4l0.5-10l-1.3-12.4l-1-4.3l4.6-8.4
			l5.2-7.3l6-8.5l6.9-10.3l-5.3-3.1l3.7-3.7l11.4-1.3l13.7-10.7l9.8-1.8l18-7.5l5.7-3l19.3-7.3l17-5.4l16.5-6.8l8.7-4.3l18.5-10.7
			l4-1.7l6.6-3l8.2-4l3.7-3.7l29.8-9.9l16.6-3.9l1.9-0.3l13.8-3.6l22.7-2l26.9,4.7l17.4,1l7.8-2.3l0.3,1.1h15l4.9,0.7l0.6-0.7h0.9
			l-0.2-0.8l2.1-2.5l-2.9-0.5l-1.6-5.6l3.6-1.4l8.7,0.6l2.8,4.2l-0.3,4.1l7.1-0.1l2.4,8.6h1l2.4,1.7l21.5,5l10.6-3l4-4.6l7.5-1.6
			l0.9-0.5l2.1,7.3l0.8-0.4l0.4,0.3l10.1-2.9l8.1-6.6l2.5-1l-2.7-0.1l-0.7-2.4l0.8-0.8l0.3-2.6l6.1-1.2l3.8-2.5l1.4,1.4
			c0,0-2.1,5.6,0.2,5.5c2.2-0.1,11.4,0.5,11.4,0.5l10.2,2.8l1.9,2.5l8.1-0.5l2.6,1.6l0.8-0.6L1548,926l3-2.6l4.5,1.2l0.6-0.1
			L1548,896l3-2.6l4.5,1.2l19.9-4.7l5.7,0.2l3.6,1.2l14.4-0.9l1.4-2.3l3-0.5l7.6-0.5l1.7,0.2l5-5.2l5.6-7.3l4.4,15.4l-1.5,0.7l1.7,0
			l0.1,0.2l0.6-0.2l5.1,0.1l16.8-5.6l1.8,0.1l10-1.7l17.7-4.8l16.9-1.9l12.5-1.9l20.2,1.9l20.5,5.7l3.7,2.4l7.5,1.6l3.5,3.3
			l-0.5,4.9l9.7-2.9l10.8-0.7l10.9-4.1l12.2-7.1l8.5-0.2l1.9-2.1l-1.7-1.6l1.5-3.6l11.7-2.2l7.2-0.4l7.3,2.2l10.9,1.9l4.8,6.4
			l7.1,1.3l1.4,6l8.6,2.4l2.6,3.6l19.2,67.3l-0.1,0.1l0.1,0.1l0.2,0.7h0.7l6.9,5.4l5.6,5.1l5.3,9.2l6.1,6.6l3.2,8.8l4.8,0.3l5.6-4.1
			l4.4,1.8l5.1,6.9l-0.1,6.4l6.3,7.4l2.9-2.5l10.6-0.1l8.7,3.5l6.7,8.8l0.5,6l-0.6,5.2l2.6,1.6l3.3,0.7l7.3-2.2l4.9-3.2l10.9-1
			l9.3-3.2l9.3-6.4l-0.3-3.4l0.4-4.4l2.8-3.6l0.1-3.5l7.4-2.8l2.7-6.2l-0.9-3.1l3.3-14.9l-17-59.8h-19.1l-8.5-7.3l-7.1-10.8
			l-10-16.2l-5.3-17.1l-2.5-12.9l0.4-1.6l1.1-11.3l1.5-2.4l-0.5-1.7l-2.5-12.9l0.4-1.6l1.1-11.3l11.5-18.6l6.2-7.9l0-4.6l12.5-11.9
			l-0.7-2.4l2.1-1.9l6.5-2.7l16.8-10.9l-1-5.7l8.2-0.8l11.7-6.8l4.9-1.7l8.1-6.6l9.1-5.5l7.7-6.8l7.1-1.6l4.6-5.2l4.9-1.7l4.6-11.6
			l10.4-11.6l17.9-10.9l1.2-1.5l15.9-3.4l13.3-1.7l2.6-4.5l8.8-12.1l11.9-9.1l20.8-10.8l15.7-5.3l8-1.6l2.9,0.7l3.6-0.2l11.1-9.4
			l4.1-3.9h1.6l-0.3-1.1l1.9-1.8l-2.2,0.6l-3.7-13.1l9.5-3l5.1-5.5l2.9-3.9l7.9-2.8l1-2.6l-8.1-28.5l0.8-0.4l5.7-6.9l-6.5-22.6
			l0.8-0.4l7.7-9.4l0.5-6.1l3.6-8.4l10.1-7.4l3.8-6l-1.1-0.9l7.7-7.7l3.2-8.9l-0.3-1.3l-1.2-6.4h0.2l-0.5-1.8l-0.9-4.9l-0.4,0.2
			l-1.5-5.4h11.7l-0.5-1.9l5.3-3.6l4.8-9l9.8-7.8l11.9-12.3l1.9-3.3l-6.8,0.9l-1.1-0.8l3.7-2l6.9-3.9l0.7-2l0.2,0l-0.7-1.1l4.4-17
			l-2.7-5.9l-3.6,1.7l-7.8,1.1l-1.1-0.8l3.7-2l6.9-3.9l0.7-2l1.5-0.2l3,0.8l11.8-2.8l17.2-4.5l7.7-2.2l22.6-10.9l12.3-6l1.4-0.9
			l8.7-2.7l-0.7-2.3l1.9-1.2l-2.4-0.5l-2.8-9.7l14.2-5l2.6-0.6l8.6-2.3l7.8-3.9l4.1-3.4l3.5,0.1l8.9-3.3l1.6-0.8l6.3-2.2l-0.2-4
			l0.2-0.2l2.1,7.3l0.1,0l-0.2,0.6l6.2-3l5.6-3.8l0,0v0l7.5-5.1l11.8-4.2l7.2-1.9l-12.5-43.8h-7.6l-0.6-3.5l10.4-7l3.7,2.4l0.3-0.1
			l-6.2-21.8h-7.6l-0.6-3.5l10.4-7l3.7,2.4l3.9-1.1l16.4-6.5l2.4-5.4l8.3-1.4l5.8-5l0.4-2.9l0.7-5.5l2.9-2.5l-0.3-2l-2.8-2.4
			l6.5-2.7l3.3,5.6l4.2-0.8l0.2,2.3l-0.8,2.9l5.3,0l2.8-5.1l1.7-1.3l-3.7-2.4l3.5-2.8l7.5-3.1l3.5-2.8l5-0.6c0,0-0.2,3.8,1.6,3.7
			c1.8-0.1,3.6-0.2,3.6-0.2l16.4-10.8l11-6.2l5.7-1.5l3.3-3.5L2624.3,102z M1492.7,949.9l1.1-0.5l0,0.2L1492.7,949.9z M1838.3,276.8
			l-9,31.8h4.3l-1.5,2.8l0.1,2.9l-2,10l-11,4.4l-1.7-0.2l2.2-7.7l4.9-4.6l3.1-4.5l-1.8-1.3l-5.8,1.8l-4.9,7.8l-8.2,2.5l-6,3.8
			l-1,1.8l1.4,1.4l-3.1,4.8l-6.5,1.3l-0.6,2.1l1,4.3l-6.3,11.4l-6.6,7.6l-0.2,2.1l4.6,11l1.5,8.6l-4.7,8.7l-1.2,2.3l4.4,10.4
			l1.5,8.6l-4.7,8.7l-5.8,11.1l-9.4,9.8l-2.3,5.1l-10.7,6.2l-3.3,1.6l-8.7,3.4l-6.9,3.9l-3.3,0.8l-3.5-1.5l-8.1-1.1l-2.5,0.5
			l-0.3-1.6l-0.9-4.6l-1.7-6.5l-3.6-3l-2.7-4.5l2.2-10l-0.3-1.9l2.6-5.5l-2.1-8l0.1-0.6l-2.5-4.1l2.2-9.9l-0.3-0.7l0.2-0.2l-0.1-1
			l2.6-5.5l-2.1-8l1.4-11.1l-1.9-4.2l4.3-5.8l3.8-5.4l5.4-5l0-6.1l0.1-6.4l2.3-3.3l6.7-4.7l1.9-5l-1.6-2.2l3.1-4.8l3-6l10.6-10.8
			l11.6-12.9l1.6-4.1l-0.4-1.7l-2.3,0.9l20.2-23.8l3.5-1.3l3.2,2.7l1.3,0.2l4.2-2.3l4.7-5.8l7.2-1.9l19.7-2.4l6.7-5l8.8-0.7
			l-8.7,30.7L1838.3,276.8z M2229.1,614.1l0.4-0.6h9L2229.1,614.1z M2241.8,616.2l-0.9-2.7h5.4L2241.8,616.2z M2307.4,439.2l0-2.3
			l0.2,0L2307.4,439.2z"/>
		<polygon class="st0" points="1819.6,282.9 1822.8,282.5 1825.5,280.5 1820,282.2 		"/>
	</g>
	<path class="st1" d="M2195.6,455.6l0.9-1.2l12-0.8l8,1.2l5.7,0.2l3.8-4l-3-3.6l0.9-3.2l-5.7-3.4l-3-9.6l6.4-9.9l0.6-3.8l-2.9-2.1
		c0,0,4.9-3.2,5.2-4.4c0.3-1.2,2.4-3.9,2.4-3.9l6.1-2.7l6.2-3.3l0.8,1.7l-4.9,3.2l-5.5,7l0.3,2l4.8,0.3l-1.5,9.9l-6.4,2.1l-1,6.4
		l1.4-0.4l4.2-3.7l3.6,3l-5.2,2.6l-2.7,6.2l5.4,5.7l10.5,0.2l4.9-1.7l6.8,7.1l3.5,0.7l1.8,0.4l-0.6,3.5l-3.7,5.8l-6.6,7.9l-4.1,10
		l1.7,8.2l7-3.9l7.7-9.4l0.5-6.1l3.6-8.4l10.1-7.4l3.8-6l-1.1-0.9l7.7-7.7l3.2-8.9l-0.3-1.3l-2.5-13l-3,1l-8.6-3.8l-2.5-8.2
		l-3.5-6.1l-5.8-1.4l-4-6.1l2.5-3.9l1.2,0.8l1.9,3.9l7.5,4.7l12.3,3.3l10.9,0.5l-0.3,2.6l-2.8,1.9l-0.5,4.9l2.2-0.1l7.1-4.8l4.8-9
		l9.8-7.8l11.9-12.3l6-10.2l-1.2-1.9l4.4-17l-2.7-5.9l-3.6,1.7l-7.8,1.1l-1.1-0.8l3.7-2l6.9-3.9l0.7-2l1.5-0.2l3,0.8l11.8-2.8
		l17.2-4.5l7.7-2.2l22.6-10.9l12.3-6l11.3-7.1l-10.9-2.2l-4.4,2.9l-9.5,5.5l-24.1,8.4l-6.2,0.1l-4.2-0.9l-3.5,1.4l-7.6,5.1l-4.7,2.6
		l-3.8,0.8l-0.2-2.3l6.3-3.6l-1.3-2.9l2.7,0.2l15.6-7l11.6-6.5l6.5-4.2l1.9,1l8.4-3.1l15-2.9l21.4-7.6l2.6-0.6l8.6-2.3l7.8-3.9
		l4.1-3.4l3.5,0.1l8.9-3.3l1.6-0.8l6.3-2.2l-0.2-4l3-2.8l8.9-3.1l0.6,5.5l-2.3,3.3l-7.5,3.1l-0.5,1.8l6.2-3l13.2-8.9l11.8-4.2
		l12.5-3.4l0.4-4.4l-1.2-5.1l-4.1-4.1l-4.5-1.2l-5.9,0.7l-1.6,1l2,2.2l4.5-1.7l5,2.6l0.8,4.9l-5.9,3.5l-6.8,2.2l-9.6-0.3l-7.7-10.2
		l-4.9-4.3l-4.9,0.3l-3.6,1.7l-4-4.4l1.7-2.7l9.4-9.8l-5.7-7.5l-1.3-0.8l3-2.1l4.7-6.2l1.6-2.1l6.4-11.6l2.7-8l4.7-2.6l-1-5.7
		l10.4-7l3.7,2.4l3.9-1.1l16.4-6.5l2.4-5.4l8.3-1.4l5.8-5l0.4-2.9l0.7-5.5l2.9-2.5l-0.3-2l-2.8-2.4l6.5-2.7l3.3,5.6l4.2-0.8l0.2,2.3
		l-0.8,2.9l5.3,0l2.8-5.1l1.7-1.3l-3.7-2.4l3.5-2.8l7.5-3.1l3.5-2.8l5-0.6c0,0-0.2,3.8,1.6,3.7s3.6-0.2,3.6-0.2l16.4-10.8l11-6.2
		l5.7-1.5l8.3-8.9l1-3.5l-4.4-6.4l-4.3-3.5l-7.7,0.8l0.8,2l-0.7,0.9l-2.2,0.1l-6.9-3.6l2.1-8.8l-1.2-3.4l-16.6,1l-9.6-52.9l-4.9-1.4
		l-15.4-3.4l-4,0l-5.9,3.5l-12.8,6l-0.5,1.8l-2.7,1.6l-7.3-0.7l-2.4-3.9l0.6-2.1l-3.5-0.1l-3.6,0.2l-8,8l-12.7,16.7l-7.5,9.1
		l-2.1,8.8l-0.3,2.6l-3.7,5.1l-2.8,1.9l-3.1,10.9l4.1,4.1l-6.2,7.6l-9.6,9l-5.1,10.1l-1.3,4.7l-4-0.5l-4,0.5l-2.6,1l-2.5,0.1
		l-2.6,3.1l-1.5-0.8l-2.2-1.6l-5.1,3.8l-2.8,9.2l-2.7,0.7l-76.5,16.8l-1.9,0.8l-22.1,5.1l-13.4,3.4l-8.9,0.3l-16,3.3l-9.2,2.8
		l-7.7,3.7l-7.1,4.8l-9.6,7.2l-10.5,8.7l-5.6,5.5l-2.2,1.6l-19.1,11l-0.9,4.7l1.7,1.9l4.5,1.2l4.9-0.3l-0.8,2.6l-4.2,4l0.1,2.6
		l3,3.6l-1.6,4.1l-6,2.4l-5.8,0.4l-5.5,3.8l-6.6,6.2l-6.8,3.6l-14.6,1.8l-7.8,2.5l-6.5,2.7l-4.4,0l-4.7-2l-17.6,1.4l-9.2,1.4
		l-11.9,3l-12.9,3.4l-9,3.7l2.2,10.9l4.9,0l2,5.4l-0.1,1.7l-3.7,2l-7.3,5.4l-2.2,3l-6.3,3.6l-5.5,2.4l-3.5,3.1l-4.2,2.3l-4.6,2.3
		l-3.1,1.1l-18.2,11.2l-3.9,1.1l-13.3,6.2l-2.8,0l-19.1,8.4l-12,4.8l-11.4,7.3l-13.3,7.8l-9.4,2l-8.3,1.4l-16.6,5.6l-5.9,0.7l-7.8-5
		l-14.7,2.1l-6.4-2.2l-5.9-2.1l-3-0.4l0.7-1.1l1.2-2.7l7.8-7.1l6.5-3.5l2-9.2l5.3-3.2l3.2-0.8l2.5-6.5l5.9-5.8l2.6,0.9l0.1,1.1
		l2.2,0.2l5.9-2.1l4.1-17.3l-4.7-14.5l-1.6-16.1l-5.1-5.5l-6.3-2.8l-5.1,2.3l-11.7,3.9l-8,9.5l-9.6,7.2l-3.5,1.4l-3.7-0.9
		c0,0-6.4-2.2-5.7-3.4c0.8-1.2,4-9.2,4-9.2l10.1-2.9l4-6.3l3.1-4.8l7.6-3.4l4.3-18.2l-3.3-3.8l-3.2-1.3l-1.2-3.7l2.7-1.6l4.3,0.3
		l1.3-3l-5.6-3.7l-2.2-4.5l-7.2,0.4l-11.8-1.9l-13.5-5.2l-7.6,0.5l-2.1,1.3l-2.4-0.7l-7.4-3.6l-9,3.7l-9.3,4.6l-1,6.4l2.5,0.4
		l5.6,0.5l0.9,1.4l-7.6,1.9l-7.4,1l-5,3.5l-2,3.9l0.1,2.9l-2,10l-11,4.4l-1.7-0.2l2.2-7.7l4.9-4.6l3.1-4.5l-1.8-1.3l-5.8,1.8
		l-4.9,7.8l-8.2,2.5l-6,3.8l-1,1.8l1.4,1.4l-3.1,4.8l-6.5,1.3l-0.6,2.1l1,4.3l-6.3,11.4l-6.6,7.6l-0.6,8.4l0.8,2l-3.5,4.6l-1.3,1.5
		l-2.3,5.1l6.8,10.3l4.7,11.3l1.5,8.6l-4.7,8.7l-5.8,11.1l-9.4,9.8l-2.3,5.1l-10.7,6.2l-3.3,1.6l-8.7,3.4l-6.9,3.9l-3.3,0.8
		l-3.5-1.5l-8.1-1.1l-2.5,0.5l-0.3-1.6l-0.9-4.6l-1.7-6.5l-3.6-3l-2.7-4.5l2.2-10l-0.3-1.9l2.6-5.5l-2.1-8l1.4-11.1l-1.9-4.2
		l4.3-5.8l3.8-5.4l5.4-5l0-6.1l0.1-6.4l2.3-3.3l6.7-4.7l1.9-5l-1.6-2.2l3.1-4.8l3-6l10.6-10.8l11.6-12.9l1.6-4.1l-0.4-1.7l-2.5,1
		l-15,12.2l-9.8,7.8l-6.3,3.6l-3.4,4.3l-4.5,1.7l-4.2,3.7l-3.9-0.3l0.5-3.2l4.9-4.6l8.3-8.9l5.8-3.2l4.3-4.4l2-1.7l12.5-13.3
		l4.8-7.5l7.7-8.3l2.3-0.4l2.3,2.7l1.8-0.1l13.9-5.2l3.2,2.7l1.3,0.2l4.2-2.3l4.7-5.8l7.2-1.9l19.7-2.4l6.7-5l14.5-1.2l15.5,1.4
		l4.9-0.3l9.8-3.2l6.2-0.1l6.2-1.5l10.1,0.2l2.1,0.5l3.8-0.8l-3.1-1.5l-3.3-1l-7.4-5l3.6-12.7l-3.8-0.6l-3.7,2.3l-17.9,4l-5.6,1.2
		l-7.7-1l-1.2-0.5l2.9-10.3l-4,0l-7.9,2.8l-13.6,4.3l-18.6,1.7l-10,2.6l-13.1,7.2l-5,2l-3.1,0.2l-4,1.7l-4.2-0.6l-3.8-2.1l-4.6,2
		l-10.9,1l-6.2-4.5l-2.4-5.3l-3.5-1.8l-8.5-1.2l-6.3,0.4l-2.9-2.1l-11.4,5.9l-3.3,2.2l-2-0.7l2.2-4.8l8.4-6.3l2.6-4.5l6.7-1.9
		l5.6-5.8l10.8-2.4l1.4-1.8l-2.6-1.9l-13.3,1.7l-13.4,5.2l-7.5,4.5l-4.5,3.5l-5.4,1.8l-6.9,5.6l-1.1,2.4l-13.2,4.6l-7.8,3.9
		l-17.1,2.8l-2.1,1.3l-0.5,1.8l-11.1,4.7l-8.1,1.9l-2.3,1.2l-3.1,0.9l-2.1,2.4l-3.1-0.1l-1.2-1.9l-7.2-1l-3.2,0.5l-5.5,2.1l-2.4-1
		l2.8-3.6l7-5.9l3.7-2.3l-4.6-2.3l-6.3,1.8l-9.1,4l-22.4,7.2l-8.4,1.7l-7.8-0.4l-2.3-1.4l-0.9-0.9l12.2-6l3.7-0.5l15.2-9.9l5.4-1.8
		l8.3-7.5l8.6-6.9l9.9-5.2l14.3-4.5l27.8-9l11.9-4l2.9-4.3l-12.5,1.4l-2.6,2.1l-1.8,0.1l-3.3-5.3l-24.9,2.1l-3.1,1.6l-2.7,0.2
		l-0.7-2.3l-1.3-3.1l-7.4,1.3l-10.7,6.4l-4.9,1.7l-8.5,0.5l-6.7-1.3l1.1-3.8l-3.5-0.1l-1.6,1l-6.5-1.9l0.2-5.2l-4.3,1.1l-1.9,1.8
		l-6.5-0.5l-13.6-3.5l-9.4-4l-8.1,0.5l-3.1-1.5l-6.6,1.6l-3.7,2.3l-1.6,2.4l-13.5,0.8l1.1-3.8l-17.4,0.5l-0.1-2.6l-13.5,0.8
		l-3.7-2.7l-0.8-10.9l0.6-9.9l-5-1.1l-6-0.5l-1.9,0.4l-5.2,15.1l-83.8,5.1l-3,0.1l-78.8,3.8l-51.4,2l-73.1,2.2l-68.4,0.8l-3.3-0.7
		l-83.9,0.1l-79.5-1.5l-79.3-2.4l-87.2-4.2l-49.5-3l-87.4-7l-3-0.1l-34.8-2.4l-1.8-0.6l-40.4-3.6l-60.9-6.4l-52.8-6.9l-22.8-2.1
		l-25.6-3.3l-11.4-1.9l-3.6,1.7l-1.3,1.5l4.2,8.4l1.8,4.5l-6.8,6.8l-1.2,4.1l1,2.5l-3.2,3.4l-0.3,5.8l2,2.2l-1.1,2.4l-4.1,0.5
		l-0.8-3.4l-1.9-4.2l-4.2-2.3l2-3.9l6.5-1.3l0-3.2l-0.3-2l-6.5,2.7l-4.2,2.3l-1.3,4.4l-6.4,0.7l-8.9-1.2l-7.3-2.2l-8.2-0.7
		l-11.5-3.1l-8-3l-6.3-4.2l-5.2-4.9l-5.6-0.5l-11.2,17.5l3.3,5.6l-4.1,14.4l-3.3,5.4l0.3,12.7l6.2,4.5l-12.5,1.9l-2.4,6.8l6.6,1.6
		l-6.6,7.6l-7.8,1.1l-2.4,5.4l4.8,4.9l-7.2,5.1l-9.7,12.2l-14.2,18.8L188,256.2l-21.3,26.5l-25.1,25.8l-29.1,24.3l-6.9,5.6L99,354.2
		l-6.7,11.1l5.7,6l-1.8,1.8l-6.9,8.9l-4.3,13.6l-20.5,22.4l-9.9,5.2l-1.5,2.1l-5.4,1.8l-6.2,7.9l-3.9,6l5.5,7.2l2.3,7.4l1.3,6.3
		l-4.3,11.8l-6.5,5.9l-4.8,10.7l-4.6,6.9l2.9,6.8l5.3,7.8l3.8,8.4l1.5,7.1l-2.6,5.9l-1.2,0.9l-1.1,3.8l12.5,10.5l-2.6,4.5l-3,4.2
		l-2.8,3.6l-3.8,15l3.9,6.4l4,4.4l7.4,0.4l1.3,4.8l-5,6.7l-6.7,3.3l-3.1,0.2l-4.3,7.2l-0.2,5.2l6.7,7.4l1.7,9.4l1.6,8.3l2,5.4
		l6.4,10l2.7,4.5l-0.2,5.2l4,1.5l-1.3,4.4l-3.3,3.7l-8.7,13.3l-2.4,3.6l5.3,4.6l11.4,0.2l11.7,2.5l9.7,3.2l8.1-0.5l6.5,5.1l4.7,8.4
		l2,3.9l9.7,3.2l13.1,0.6l3,3.6l0.1,5.8l-4.4,1.4l0.4,1.7l8.6,0.9l7.6-0.2l5.7,8l8.6,7l1.1,4l5,7.2l-0.8,5.8l-4.9,17.1l0.4,3.2
		l27.1,0.9l53.4,1.6l38.2-0.6l2.4,1.2l-8.4,4.4l-1.7,2.7l0.8,1.7l47.1,16.2l29.8,11.8l36.5,13.1L421,856l32.9,2.3l68.5,0.6l4,1.2
		l42,1l8.8-18.5l45,1.9l33.8,0.8l2.7-0.2l5.1,0.6l5.7,4.9l1.8,7.7l11.9,3.3l1.9,5.7l15.7,13.2l2.8,2.7l12.8,3l2.1,3.6l4,1.5
		l-0.1,4.9l5.6,11.2l-4.2,14.7l3.9,8.1l16.6,12.9l13.3,2.9l3.9,3.2l-0.3,1.2l9.6,3.5l5.1,0.8l4.4,1.8l6.7,1.3l8-4.8l15.3-11.9
		l4.6-6.9l8-6.3l10.7-3.3l13.5-4l7.4,3.6l20.4-0.1L893,925l6.1,3.4l-0.6,2.1l5.6,5.1l13.9,8.7l-0.3,2.6l3.9,3.2l0.1,7.5l8.4,21.5
		l-1.5,3.6l10.3,4l6.4,11.5l7.2,7.4l8.3,1.8l3.3,3.8l-5.9,8.2l1.3,1.7l3.3,1l-2.7,6.2l-2.1,1.3l0.6,4l8,3l0.2,11.6l3.8,6.7l19.4,4.9
		l13.8,1.2l10.1,4.9l8.7,0.6l3.9-1.1l14.7,1.1l13.7,6.1l9.6-4.1l3.5-2.8l-3.5-4.7l0.5-11l-1.3-12.4l-1-4.3l4.6-8.4l5.2-7.3l6-8.5
		l6.9-10.3l-5.3-3.1l3.7-3.7l11.4-1.3l13.7-10.7l9.8-1.8l18-7.5l5.7-3l19.3-7.3l17-5.4l16.5-6.8l8.7-4.3l18.5-10.7l4-1.7l6.6-3
		l8.2-4l3.7-3.7l29.8-9.9l16.6-3.9l1.9-0.3l13.8-3.6l22.7-2l26.9,4.7l17.4,1l11.1-3.3l8.4,1.5l8.5,1.2l3.3-4l-8.4-1.5l-7.4,1.3
		l-6.8-2.5c0,0,1.1-2.4,3-2.8c1.9-0.4,9.1-2.3,9.1-2.3l4.2,2.3l5.5-2.1l8.7,0.6l2.8,4.2l-0.3,4.1l12.4-0.2l4,2.9l-3.1,3.1l-4,1.7
		l3.7,2.7l21.5,5l10.6-3l4-4.6l7.5-1.6l5.7-3l3.1,1.5l0.7,5.2l-6.7,1.9l1.5,1.1l10.1-2.9l8.1-6.6l2.5-1l-5.7-0.2l3.1-3.1l0.3-2.6
		l6.1-1.2l3.8-2.5l1.4,1.4c0,0-2.1,5.6,0.2,5.5c2.2-0.1,11.4,0.5,11.4,0.5l10.2,2.8l1.9,2.5l8.1-0.5l2.6,1.6l7.9-6l0.8-2.6l-3.6,0.2
		l-8-4.4l-15.8-0.5l-7.8-3.6l4.6-5.2l6.1,0.2l0.8-1.2l-4.4-1.5l0.3-0.9l9-0.6l6.5-5.9l-2.6-3.3l0.5-4.9l-4.1,0.5l-6.5,4.2l-3.1,4.8
		l-8.2-0.7l-1.8-3.1l6-3.8l6.5-3.6l2.4-1.1l3.5-1.6l9.4-8.1l4.5,1.2l19.9-4.7l5.7,0.2l3.6,1.2l14.4-0.9l1.4-2.3l3-0.5l7.6-0.5
		l1.7,0.2l5-5.2l6.3-8.2l6,0.8l5.4,10.4l-0.5,1.8l-8.7,4l7.5,0.1l16.8-5.6l1.8,0.1l10-1.7l17.7-4.8l16.9-1.9l12.5-1.9l20.2,1.9
		l20.5,5.7l3.7,2.4l7.5,1.6l3.5,3.3l-0.5,4.9l9.7-2.9l10.8-0.7l10.9-4.1l12.2-7.1l8.5-0.2l1.9-2.1l-1.7-1.6l1.5-3.6l11.7-2.2
		l7.2-0.4l7.3,2.2l10.9,1.9l4.8,6.4l7.1,1.3l1.4,6l8.6,2.4l3.1,4.4l5.1,0.8l13.7,1.5l2,5.4l6.6,6.2l-5,17.4l-6.5,8.8l-0.5,4.9
		l1.1,8.6l2.8,7.1l2.5-1l6.4-8.5l-6.7-1.3l-0.6-1.1l4.8-1.5l12.1,1l-0.4,2.9l-11.9,10.6l-7.1,4.8l8,6.2l5.6,5.1l5.3,9.2l6.1,6.6
		l3.2,8.8l4.8,0.3l5.6-4.1l4.4,1.8l5.1,6.9l-0.1,6.4l6.3,7.4l2.9-2.5l10.6-0.1l8.7,3.5l6.7,8.8l0.5,6l-0.6,5.2l2.6,1.6l3.3,0.7
		l7.3-2.2l4.9-3.2l10.9-1l9.3-3.2l9.3-6.4l-0.3-3.4l0.4-4.4l2.8-3.6l0.1-3.5l7.4-2.8l2.7-6.2l-0.9-3.1l4.9-21.7l0.4-13.6l-8.3-14.2
		l-6.9-10l-4.4-9.3l-6.6-4.8l-4.2-13l2.9-2.5l3.8-2.5l-3-5l-9.3-6.1l-10.6-9.2l-7.1-10.8l-10-16.2l-5.3-17.1l-2.5-12.9l0.4-1.6
		l1.1-11.3l11.5-18.6l6.2-7.9l0-4.6l12.5-11.9l-0.7-2.4l2.1-1.9l6.5-2.7l16.8-10.9l-1-5.7l8.2-0.8l11.7-6.8l4.9-1.7l8.1-6.6l9.1-5.5
		l7.7-6.8l7.1-1.6l4.6-5.2l4.9-1.7l4.6-11.6l10.4-11.6l17.9-10.9l1.2-1.5l15.9-3.4l13.3-1.7l2.6-4.5l8.8-12.1l11.9-9.1l20.8-10.8
		l15.7-5.3l8-1.6l2.9,0.7l3.6-0.2l11.1-9.4l7.2-6.8l-3.9,1.1l-7.5,4.5l-1-2.8l-11.7,0.7l8.7-11.8l-1.6-2.2l-5.4,0.3l0.5-1.8
		l-0.2-2.3l3.8,2.1l4,0l6.6,0.2l11.2-3.6l5.1-5.5l2.9-3.9l7.9-2.8l3.1-7.7l-1.9-1l6.8-0.7l-0.6-4l-5.5-4l-6.5-11.2l-2.3-8.3
		l-2.1-1.5l-6.9-10.3l-17,4.1l-3.6-2.5l7.8-3l-0.1-4.5l-4-2.9l0.4-2.5l-5.5-2.4l0.6-2.9l7.4-0.3l1.3-2.6l-3-1.2l2.3-3.6l-3.2-1.8
		l3.7-8.6l-1.8-2l-8.7-0.2l-4.9-3.4l-13-0.9L2195.6,455.6z"/>
</g>
</svg>
